:SAMPLES-PER-SECOND 30
:FULLY-SPECIFIED
:DEGREES
119
root  4.681133285 41.80911207 0.2439199939 -13.02197266 -49.60899353 13.5369873
lowerback  5.800670147 2.493799925 -0.6762570143
upperback  1.191650033 3.283869982 0.6286129951
thorax  -2.095619917 1.638380051 0.7767779827
lowerneck  -8.622909546 6.427780151 -2.221199989
upperneck  15.58839989 8.635849953 2.509040117
head  5.921899796 4.240369797 1.790809989
lclavicle  0 -9.442270133e-015 7.951389973e-016
lhumerus  1.961199999 -17.1067009 79.01689911
lradius  2.902847769e-031 -2.010551881e-031 145.2929993
lwrist  -7.062250077e-031 -0 5.581600189
lhand  -1.496451383e-031 -27.76390076 20.11240005
lfingers  90 7.125020027 -90
lthumb  89.89689403 5.08795885 91.16245106
rclavicle  0 -9.442270133e-015 7.951389973e-016
rhumerus  5.625860214 33.83649826 -81.58329773
rradius  -2.548326706e-031 2.444355751e-031 136.1929932
rwrist  7.062250077e-031 -0 -7.364610195
rhand  -7.920061211e-032 -33.2840004 9.303460121
rfingers  -90 -7.125020027 -90
rthumb  -92.93752616 -24.25625642 -97.11982154
rfemur  -14.08899975 19.38010025 7.926410198
rtibia  -0 0 51.8526001
rfoot  -4.467393891e-032 -8.875060081 4.845359802
rtoes  5.373923086 19.29304026 -105.8922705
lfemur  -17.09819984 1.847370028 -22.07760048
ltibia  -0 0 42.51169968
lfoot  4.975021796e-032 -3.518399954 0.4518330097
ltoes  -4.250644065 -19.5611806 -102.515957
120
root  4.723555647 41.86777731 0.2717933317 -12.7130127 -49.77999878 13.38598633
lowerback  5.754169941 2.479520082 -0.4998039901
upperback  1.184550047 3.275019884 0.5988320112
thorax  -2.06520009 1.632869959 0.6505759954
lowerneck  -8.425000191 6.511529922 -2.01274991
upperneck  15.42389965 8.724049568 2.44095993
head  5.846869946 4.291959763 1.730589986
lclavicle  0 -9.442270133e-015 7.951389973e-016
lhumerus  2.878969908 -16.97170067 78.0983963
lradius  2.904566013e-031 -2.008068802e-031 145.3419952
lwrist  -1.412450015e-030 -0 5.956039906
lhand  -1.496451383e-031 -27.76390076 20.11240005
lfingers  90 7.125020027 -90
lthumb  89.89689403 5.08795885 91.16245106
rclavicle  0 -9.442270133e-015 7.951389973e-016
rhumerus  6.385280132 33.51589966 -81.11009979
rradius  -2.543201883e-031 2.449687372e-031 136.072998
rwrist  7.062250077e-031 -1.765562519e-031 -7.133269787
rhand  -7.920061211e-032 -33.2840004 9.303460121
rfingers  -90 -7.125020027 -90
rthumb  -92.93752616 -24.25625642 -97.11982154
rfemur  -14.56429958 19.89920044 7.871029854
rtibia  -0 0 51.66939926
rfoot  -4.478302396e-032 -9.728199959 4.124440193
rtoes  5.373923086 19.29304026 -105.8922705
lfemur  -16.72520065 1.674710035 -22.02560043
ltibia  -0 0 42.94189835
lfoot  4.421069601e-032 -3.2620399 2.696969986
ltoes  -4.250644065 -19.5611806 -102.515957
121
root  4.76344439 41.89800052 0.2998511153 -12.42102051 -49.92399597 13.17297363
lowerback  5.751510143 2.451230049 -0.3031120002
upperback  1.183969975 3.249180079 0.6098859906
thorax  -2.053610086 1.618780017 0.5543850064
lowerneck  -8.263819695 6.585549831 -1.911080003
upperneck  15.35560036 8.809200287 2.416500092
head  5.801730156 4.337940216 1.704409957
lclavicle  0 -9.442270133e-015 7.951389973e-016
lhumerus  3.515389919 -17.22050095 77.39659882
lradius  2.907122048e-031 -2.004366593e-031 145.4149933
lwrist  -7.062250077e-031 -1.765562519e-031 6.376070023
lhand  -1.496451383e-031 -27.76390076 20.11240005
lfingers  90 7.125020027 -90
lthumb  89.89689403 5.08795885 91.16245106
rclavicle  0 -9.442270133e-015 7.951389973e-016
rhumerus  7.038290024 33.21820068 -80.65809631
rradius  -2.539479017e-031 2.453546486e-031 135.9859924
rwrist  1.412450015e-030 -0 -6.708859921
rhand  -7.920061211e-032 -33.2840004 9.303460121
rfingers  -90 -7.125020027 -90
rthumb  -92.93752616 -24.25625642 -97.11982154
rfemur  -14.95059967 20.47260094 7.945559978
rtibia  -0 0 51.49039841
rfoot  -4.497918941e-032 -11.09130001 2.973150015
rtoes  5.373923086 19.29304026 -105.8922705
lfemur  -16.35540009 1.705410004 -21.98559952
ltibia  -0 0 43.59400177
lfoot  4.418306389e-032 -2.55727005 4.673930168
ltoes  -4.250644065 -19.5611806 -102.515957
122
root  4.793422053 41.8973337 0.3260000015 -12.17999268 -50.0059967 13.05297852
lowerback  5.770629883 2.396729946 -0.4107060134
upperback  1.139860034 3.173039913 0.7221480012
thorax  -2.120870113 1.58186996 0.7331259847
lowerneck  -8.071490288 6.643390179 -1.978690028
upperneck  15.26620007 8.891090393 2.424489975
head  5.735370159 4.375750065 1.712260008
lclavicle  0 -9.442270133e-015 7.951389973e-016
lhumerus  3.745270014 -17.81909943 76.95970154
lradius  2.91173219e-031 -1.997663559e-031 145.5469971
lwrist  -7.062250077e-031 -1.765562519e-031 6.588600159
lhand  -1.496451383e-031 -27.76390076 20.11240005
lfingers  90 7.125020027 -90
lthumb  89.89689403 5.08795885 91.16245106
rclavicle  0 -9.442270133e-015 7.951389973e-016
rhumerus  7.537879944 33.03630066 -80.1292038
rradius  -2.536179573e-031 2.4569569e-031 135.9089966
rwrist  1.412450015e-030 -1.765562519e-031 -6.367579937
rhand  -7.920061211e-032 -33.2840004 9.303460121
rfingers  -90 -7.125020027 -90
rthumb  -92.93752616 -24.25625642 -97.11982154
rfemur  -15.34990025 20.97599983 7.973430157
rtibia  -0 0 51.29899979
rfoot  -5.651692355e-032 -12.51599979 1.155679941
rtoes  5.373923086 19.29304026 -105.8922705
lfemur  -16.12109947 1.812340021 -22.04439926
ltibia  -0 0 44.47470093
lfoot  -0 -1.764580011 6.530600071
ltoes  -4.250644065 -19.5611806 -102.515957
